# xmcd
#
# Track frame offsets: 
#        150
#        17210
#        35235
#        62365
#        82200
#        117215
#        157270
#        179160
#
# Disc length: 2709 seconds
#
# Revision: 2
# Processed by: cddbd v1.5.2PL0 Copyright (c) Steve Scherf et al.
# Submitted via: ExactAudioCopy v0.95a5
#
DISCID=720a9308
DTITLE=Ali Farka Touré - African Blues
DYEAR=1990
DGENRE=Folk
TTITLE0=Sidy Gouro
TTITLE1=N'timbara
TTITLE2=Devele Wague
TTITLE3=Okatagouna
TTITLE4=Zona
TTITLE5=Mbaudy
TTITLE6=Petenere
TTITLE7=L'Exode
EXTD=
EXTT0=
EXTT1=
EXTT2=
EXTT3=
EXTT4=
EXTT5=
EXTT6=
EXTT7=
PLAYORDER=
